<mxfile host="Electron" modified="2023-04-30T21:38:09.356Z" agent="Mozilla/5.0 (Macintosh; Intel Mac OS X 10_15_7) AppleWebKit/537.36 (KHTML, like Gecko) draw.io/21.2.1 Chrome/112.0.5615.87 Electron/24.1.2 Safari/537.36" etag="COJfm4rcCRZQ5tP0oIbD" version="21.2.1" type="device">
  <diagram name="Page-1" id="oiDOwIseU5BvPzYJeGbI">
    <mxGraphModel dx="1242" dy="984" grid="1" gridSize="10" guides="1" tooltips="1" connect="1" arrows="1" fold="1" page="1" pageScale="1" pageWidth="1169" pageHeight="827" math="0" shadow="0">
      <root>
        <mxCell id="0" />
        <mxCell id="1" parent="0" />
        <mxCell id="AUySJYUAtM3CedbyxXsD-47" value="&lt;font style=&quot;font-size: 18px;&quot;&gt;&lt;b&gt;Spring Cloud Gateway&lt;/b&gt;&lt;/font&gt;" style="rounded=1;whiteSpace=wrap;html=1;fillColor=#f5f5f5;strokeColor=#666666;labelPosition=left;verticalLabelPosition=top;align=right;verticalAlign=bottom;spacingLeft=0;spacingRight=-220;spacingTop=0;spacingBottom=-50;fontColor=#333333;" vertex="1" parent="1">
          <mxGeometry x="230" y="190" width="610" height="530" as="geometry" />
        </mxCell>
        <mxCell id="AUySJYUAtM3CedbyxXsD-10" style="edgeStyle=orthogonalEdgeStyle;rounded=0;orthogonalLoop=1;jettySize=auto;html=1;entryX=0.5;entryY=0;entryDx=0;entryDy=0;strokeWidth=3;exitX=0.5;exitY=1;exitDx=0;exitDy=0;fillColor=#f8cecc;strokeColor=#000000;startArrow=classic;startFill=1;" edge="1" parent="1" source="AUySJYUAtM3CedbyxXsD-4" target="AUySJYUAtM3CedbyxXsD-5">
          <mxGeometry relative="1" as="geometry">
            <mxPoint x="480" y="285" as="targetPoint" />
          </mxGeometry>
        </mxCell>
        <mxCell id="AUySJYUAtM3CedbyxXsD-1" value="&lt;font style=&quot;font-size: 18px;&quot;&gt;&lt;b&gt;Gateway Web Handler&lt;/b&gt;&lt;/font&gt;" style="rounded=1;whiteSpace=wrap;html=1;fillColor=#dae8fc;strokeColor=#6c8ebf;" vertex="1" parent="1">
          <mxGeometry x="400" y="408" width="250" height="100" as="geometry" />
        </mxCell>
        <mxCell id="AUySJYUAtM3CedbyxXsD-4" value="&lt;span style=&quot;font-size: 18px;&quot;&gt;&lt;b&gt;Gateway Client&lt;/b&gt;&lt;/span&gt;" style="rounded=1;whiteSpace=wrap;html=1;fillColor=#d5e8d4;strokeColor=#82b366;" vertex="1" parent="1">
          <mxGeometry x="400" y="30" width="250" height="100" as="geometry" />
        </mxCell>
        <mxCell id="AUySJYUAtM3CedbyxXsD-5" value="&lt;font style=&quot;font-size: 18px;&quot;&gt;&lt;b&gt;Gateway Handler Mapping&lt;/b&gt;&lt;/font&gt;" style="rounded=1;whiteSpace=wrap;html=1;fillColor=#dae8fc;strokeColor=#6c8ebf;" vertex="1" parent="1">
          <mxGeometry x="400" y="252" width="250" height="100" as="geometry" />
        </mxCell>
        <mxCell id="AUySJYUAtM3CedbyxXsD-48" value="&lt;font style=&quot;font-size: 18px;&quot;&gt;&lt;b&gt;Proxied Service&lt;/b&gt;&lt;/font&gt;" style="rounded=1;whiteSpace=wrap;html=1;fillColor=#ffe6cc;strokeColor=#d79b00;" vertex="1" parent="1">
          <mxGeometry x="401" y="777" width="249" height="100" as="geometry" />
        </mxCell>
        <mxCell id="AUySJYUAtM3CedbyxXsD-49" style="edgeStyle=orthogonalEdgeStyle;rounded=0;orthogonalLoop=1;jettySize=auto;html=1;entryX=0.5;entryY=0;entryDx=0;entryDy=0;strokeWidth=3;exitX=0.5;exitY=1;exitDx=0;exitDy=0;fillColor=#f8cecc;strokeColor=#000000;startArrow=classic;startFill=1;" edge="1" parent="1" source="AUySJYUAtM3CedbyxXsD-5" target="AUySJYUAtM3CedbyxXsD-1">
          <mxGeometry relative="1" as="geometry">
            <mxPoint x="540" y="140" as="sourcePoint" />
            <mxPoint x="540" y="280" as="targetPoint" />
          </mxGeometry>
        </mxCell>
        <mxCell id="AUySJYUAtM3CedbyxXsD-50" value="" style="rounded=0;whiteSpace=wrap;html=1;fillColor=#BFBFBF;fontColor=#333333;strokeColor=#666666;" vertex="1" parent="1">
          <mxGeometry x="400" y="560" width="250" height="120" as="geometry" />
        </mxCell>
        <mxCell id="AUySJYUAtM3CedbyxXsD-51" value="&lt;font style=&quot;font-size: 16px;&quot;&gt;Filter&lt;/font&gt;" style="rounded=0;whiteSpace=wrap;html=1;fillColor=#BFBFBF;fontColor=#333333;strokeColor=#666666;dashed=1;dashPattern=1 1;strokeWidth=2;" vertex="1" parent="1">
          <mxGeometry x="400" y="560" width="250" height="30" as="geometry" />
        </mxCell>
        <mxCell id="AUySJYUAtM3CedbyxXsD-52" value="&lt;font style=&quot;font-size: 16px;&quot;&gt;Filter&lt;/font&gt;" style="rounded=0;whiteSpace=wrap;html=1;fillColor=#BFBFBF;fontColor=#333333;strokeColor=#666666;dashed=1;dashPattern=1 1;strokeWidth=2;" vertex="1" parent="1">
          <mxGeometry x="400" y="590" width="250" height="30" as="geometry" />
        </mxCell>
        <mxCell id="AUySJYUAtM3CedbyxXsD-53" value="&lt;font style=&quot;font-size: 16px;&quot;&gt;Filter&lt;/font&gt;" style="rounded=0;whiteSpace=wrap;html=1;fillColor=#BFBFBF;fontColor=#333333;strokeColor=#666666;dashed=1;dashPattern=1 1;strokeWidth=2;" vertex="1" parent="1">
          <mxGeometry x="400" y="620" width="250" height="30" as="geometry" />
        </mxCell>
        <mxCell id="AUySJYUAtM3CedbyxXsD-54" value="&lt;font style=&quot;font-size: 16px;&quot;&gt;Proxy Filter&lt;/font&gt;" style="rounded=0;whiteSpace=wrap;html=1;fillColor=#BFBFBF;fontColor=#333333;strokeColor=#666666;dashed=1;dashPattern=1 1;strokeWidth=2;" vertex="1" parent="1">
          <mxGeometry x="400" y="650" width="250" height="30" as="geometry" />
        </mxCell>
        <mxCell id="AUySJYUAtM3CedbyxXsD-55" style="edgeStyle=orthogonalEdgeStyle;rounded=0;orthogonalLoop=1;jettySize=auto;html=1;strokeWidth=3;fillColor=#f8cecc;strokeColor=#000000;startArrow=none;startFill=0;exitX=0.25;exitY=1;exitDx=0;exitDy=0;entryX=0.25;entryY=0;entryDx=0;entryDy=0;" edge="1" parent="1" source="AUySJYUAtM3CedbyxXsD-1" target="AUySJYUAtM3CedbyxXsD-51">
          <mxGeometry relative="1" as="geometry">
            <mxPoint x="480" y="510" as="sourcePoint" />
            <mxPoint x="463" y="550" as="targetPoint" />
          </mxGeometry>
        </mxCell>
        <mxCell id="AUySJYUAtM3CedbyxXsD-56" style="edgeStyle=orthogonalEdgeStyle;rounded=0;orthogonalLoop=1;jettySize=auto;html=1;entryX=0.75;entryY=1;entryDx=0;entryDy=0;strokeWidth=3;fillColor=#f8cecc;strokeColor=#000000;startArrow=none;startFill=0;" edge="1" parent="1" target="AUySJYUAtM3CedbyxXsD-1">
          <mxGeometry relative="1" as="geometry">
            <mxPoint x="588" y="560" as="sourcePoint" />
            <mxPoint x="500" y="518" as="targetPoint" />
          </mxGeometry>
        </mxCell>
        <mxCell id="AUySJYUAtM3CedbyxXsD-57" style="edgeStyle=orthogonalEdgeStyle;rounded=0;orthogonalLoop=1;jettySize=auto;html=1;strokeWidth=3;fillColor=#f8cecc;strokeColor=#000000;startArrow=none;startFill=0;entryX=0.25;entryY=0;entryDx=0;entryDy=0;exitX=0.25;exitY=1;exitDx=0;exitDy=0;" edge="1" parent="1" source="AUySJYUAtM3CedbyxXsD-54" target="AUySJYUAtM3CedbyxXsD-48">
          <mxGeometry relative="1" as="geometry">
            <mxPoint x="460" y="680" as="sourcePoint" />
            <mxPoint x="473" y="570" as="targetPoint" />
          </mxGeometry>
        </mxCell>
        <mxCell id="AUySJYUAtM3CedbyxXsD-58" style="edgeStyle=orthogonalEdgeStyle;rounded=0;orthogonalLoop=1;jettySize=auto;html=1;strokeWidth=3;fillColor=#f8cecc;strokeColor=#000000;startArrow=none;startFill=0;entryX=0.75;entryY=1;entryDx=0;entryDy=0;exitX=0.75;exitY=0;exitDx=0;exitDy=0;" edge="1" parent="1" source="AUySJYUAtM3CedbyxXsD-48" target="AUySJYUAtM3CedbyxXsD-54">
          <mxGeometry relative="1" as="geometry">
            <mxPoint x="530" y="787" as="sourcePoint" />
            <mxPoint x="530" y="690" as="targetPoint" />
          </mxGeometry>
        </mxCell>
        <mxCell id="AUySJYUAtM3CedbyxXsD-59" style="edgeStyle=orthogonalEdgeStyle;rounded=0;orthogonalLoop=1;jettySize=auto;html=1;strokeWidth=2;fillColor=#f8cecc;strokeColor=#000000;startArrow=none;startFill=0;exitX=0.25;exitY=0;exitDx=0;exitDy=0;entryX=0.25;entryY=1;entryDx=0;entryDy=0;dashed=1;dashPattern=1 1;" edge="1" parent="1" source="AUySJYUAtM3CedbyxXsD-51" target="AUySJYUAtM3CedbyxXsD-54">
          <mxGeometry relative="1" as="geometry">
            <mxPoint x="473" y="518" as="sourcePoint" />
            <mxPoint x="473" y="570" as="targetPoint" />
            <Array as="points">
              <mxPoint x="463" y="660" />
            </Array>
          </mxGeometry>
        </mxCell>
        <mxCell id="AUySJYUAtM3CedbyxXsD-60" style="edgeStyle=orthogonalEdgeStyle;rounded=0;orthogonalLoop=1;jettySize=auto;html=1;strokeWidth=2;fillColor=#f8cecc;strokeColor=#000000;startArrow=none;startFill=0;dashed=1;dashPattern=1 1;" edge="1" parent="1">
          <mxGeometry relative="1" as="geometry">
            <mxPoint x="588" y="680" as="sourcePoint" />
            <mxPoint x="588" y="560" as="targetPoint" />
            <Array as="points">
              <mxPoint x="588" y="663" />
            </Array>
          </mxGeometry>
        </mxCell>
      </root>
    </mxGraphModel>
  </diagram>
</mxfile>
